<?xml version="1.0" encoding="UTF-8"?><svg id="Layer_2" xmlns="http://www.w3.org/2000/svg" width="566.8879" height="553.4441" viewBox="0 0 566.8879 553.4441"><defs><style>.cls-1{fill:#038a87;}</style></defs><g id="Layer_1-2"><path class="cls-1" d="M536.4653,158.0025c-8.9827-12.3919-17.4199-25.2259-27.0404-37.1011-47.5184-58.6548-107.1874-98.001-182.2686-111.2344C175.9315-16.987,41.296,83.129,15.1895,223.5468c-6.0203,32.3811-5.9756,64.7632-.5015,97.1858,.2315,1.3709,.6947,2.7027,1.7078,3.9598-.2828-5.3348-.7027-10.6663-.8277-16.0048-1.6202-69.1905,17.044-132.0536,60.382-186.4573C120.6981,66.0567,178.9058,32.5674,250.4214,23.2071c39.3898-5.1555,78.0119-1.2688,115.7308,11.2841,1.5009,.4995,2.9701,1.094,4.4444,1.7645-90.3294-26.5875-172.0904-12.924-243.0667,51.2504,18.0045-12.6244,37.1387-23.5711,57.5239-32.2868,20.2725-8.6674,41.2462-15.1441,63.0085-19.2719-6.4486,2.5057-12.8709,5.0821-19.3506,7.5044-24.4208,9.1294-48.1105,19.6758-69.9404,34.1752-28.6012,18.9969-49.7186,44.6568-66.8606,73.9356-22.6916,38.7575-35.6206,80.558-36.8,125.48-1.2769,48.6336,14.5937,92.0164,44.0551,130.3066,33.5877,43.6532,77.1853,73.0175,130.327,87.6871,20.3441,5.6158,41.405,5.5971,62.3381,5.119,62.2054-1.4206,114.8692-25.4716,159.2507-68.3351,17.0818-16.4976,29.6162-36.2733,38.7294-58.2184,2.7531-6.6296,5.5126-13.2873,8.8169-19.6474,2.5958-4.9965,6.0705-9.5325,9.0712-14.3255,.6562-1.0482,.9993-2.3041,1.4139-3.4898,.9712-2.7775,1.8984-5.5705,2.8434-8.3572,.569,.1081,1.138,.2162,1.7069,.3243-.8146,7.633-1.6293,15.2659-2.4721,23.1629,7.4855-15.4593,11.5787-31.5808,13.2181-48.3939,.455-.0046,.91-.0092,1.365-.0138,.2437,5.4561,.4874,10.9122,.7311,16.3683l.8791,.1634c.853-3.1049,1.7059-6.2098,2.5589-9.3147,4.1789,13.3969,2.7135,27.1213,3.2817,40.751,4.6462-17.6208,1.3906-35.8876,4.9967-53.9077,.697,2.0603,1.394,4.1205,2.4712,7.3047,.9447-4.7415,1.6917-8.4914,2.4388-12.2414,.2418-.0127,.4837-.0254,.7256-.0382,.8395,5.6308,1.6791,11.2615,2.7023,18.1244,9.8557-32.0558,2.337-62.7123-1.0692-93.3963,.4111-.1636,.8223-.3271,1.2334-.4907,1.5639,2.4461,3.7803,4.6969,4.5806,7.3715,3.7849,12.6499,7.8627,25.2734,10.5605,38.173,4.1574,19.8783,6.4873,39.9726,4.0024,60.4167-4.2384,34.8703-16.2828,66.9189-35.0257,96.3713-47.8162,75.1382-115.9631,120.5805-204.1245,132.0187-88.9629,11.5422-169.4711-11.029-236.8674-71.9407C41.5039,434.9005,12.4867,379.985,2.9998,315.3524-15.7818,187.3966,55.055,65.1074,175.4918,18.9829c73.9096-28.3057,147.4806-24.441,219.3007,8.1524,60.4753,27.445,106.124,71.6721,140.6259,127.9125,.5461,.8902,.9332,1.878,1.3944,2.8202-.1158,.0449-.2317,.0897-.3475,.1345Z"/><g><g><path d="M189.7737,289.5504c-2.3154,.9316-4.5576,1.623-6.7256,2.0752-2.1689,.4521-4.4238,.6787-6.7656,.6787-3.751,0-7.0703-.5527-9.957-1.6562-2.8887-1.1045-5.3223-2.748-7.3047-4.9297s-3.4863-4.8896-4.5098-8.1221c-1.0254-3.2334-1.5371-6.9912-1.5371-11.2754,0-4.3906,.5586-8.2959,1.6758-11.7148,1.1182-3.4189,2.7148-6.3066,4.79-8.6611,2.0752-2.3555,4.5967-4.1514,7.5635-5.3887,2.9668-1.2368,6.2988-1.8555,9.998-1.8555,1.1973,0,2.3213,.0269,3.373,.0796,1.0508,.0537,2.082,.1533,3.0938,.2993,1.0098,.1465,2.0352,.3394,3.0723,.5786,1.0381,.2397,2.1152,.5454,3.2334,.9185v9.7383c-2.2617-1.0635-4.417-1.8223-6.4658-2.2754-2.0488-.4521-3.9121-.6777-5.5879-.6777-2.4746,0-4.5898,.4453-6.3457,1.3369-1.7568,.8916-3.2002,2.1416-4.3311,3.752-1.1318,1.6104-1.9619,3.5254-2.4951,5.7471-.5322,2.2227-.7979,4.6641-.7979,7.3242,0,2.8213,.2725,5.3428,.8184,7.5635,.5449,2.2227,1.3896,4.1055,2.5342,5.6484s2.6074,2.7207,4.3906,3.5322,3.8984,1.2168,6.3457,1.2168c.8789,0,1.8301-.0859,2.8545-.2588s2.0615-.3994,3.1133-.6787c1.0508-.2793,2.0889-.6123,3.1133-.998s1.9756-.7783,2.8535-1.1777v9.1807Z"/><path d="M176.2825,293.3043c-3.8545,0-7.3252-.5791-10.3145-1.7227-3.0205-1.1543-5.6064-2.9014-7.6875-5.1904-2.0713-2.2803-3.6602-5.1377-4.7227-8.4932-1.0508-3.3135-1.584-7.209-1.584-11.5771,0-4.4766,.5801-8.5225,1.7256-12.0254,1.1553-3.5342,2.835-6.5664,4.9902-9.0117,2.166-2.459,4.833-4.3594,7.9287-5.6504,3.0762-1.2822,6.5693-1.9326,10.3828-1.9326,1.2012,0,2.3535,.0273,3.4229,.0811,1.0791,.0552,2.1514,.1587,3.1865,.3081,1.0371,.1504,2.0977,.3501,3.1543,.5938,1.0674,.2466,2.1855,.5645,3.3252,.9443l.6836,.228v12.0342l-1.4258-.6699c-2.1855-1.0283-4.29-1.7695-6.2559-2.2041-4.8037-1.0615-8.5459-.8066-11.2646,.5742-1.6016,.8125-2.9355,1.9688-3.9658,3.4346-1.0518,1.4971-1.8389,3.3154-2.3408,5.4062-.5117,2.1338-.7705,4.5205-.7705,7.0908,0,2.7295,.2656,5.1934,.7891,7.3252,.5107,2.083,1.3076,3.8623,2.3662,5.291,1.0381,1.3994,2.3848,2.4814,4.002,3.2178,1.6436,.748,3.6387,1.127,5.9316,1.127,.8213,0,1.7256-.082,2.6885-.2451,.9844-.166,2.001-.3877,3.0225-.6592,1.0117-.2686,2.0273-.5938,3.0176-.9668,.999-.376,1.9385-.7637,2.792-1.1523l1.4141-.6436v11.4102l-.627,.252c-2.3574,.9482-4.6768,1.6641-6.8945,2.126-2.2275,.4648-4.5723,.7002-6.9697,.7002Zm.7188-53.6035c-3.5479,0-6.7822,.5986-9.6133,1.7783-2.8125,1.1729-5.2344,2.8984-7.1982,5.127-1.9746,2.2402-3.5186,5.0371-4.5898,8.3105-1.0791,3.3027-1.626,7.1396-1.626,11.4043,0,4.1631,.501,7.8545,1.4902,10.9727,.9746,3.0801,2.4209,5.6875,4.2969,7.752,1.8682,2.0557,4.1963,3.627,6.9219,4.6689,2.7598,1.0547,5.9902,1.5898,9.5996,1.5898,2.2607,0,4.4678-.2217,6.5615-.6572,1.9072-.3984,3.8984-.9951,5.9297-1.7773v-6.9775c-.4834,.1992-.9854,.3965-1.501,.5908-1.0527,.3965-2.1328,.7432-3.209,1.0293-1.0811,.2871-2.1592,.5215-3.2041,.6982-1.0723,.1807-2.0889,.2725-3.0205,.2725-2.5801,0-4.8545-.4395-6.7598-1.3066-1.9297-.8779-3.5381-2.1719-4.7793-3.8467-1.2197-1.6436-2.1289-3.6641-2.7031-6.0059-.5615-2.2861-.8467-4.9121-.8467-7.8018,0-2.7275,.2773-5.2695,.8252-7.5566,.5615-2.3379,1.4521-4.3867,2.6494-6.0898,1.2197-1.7373,2.8008-3.1064,4.6973-4.0684,3.1416-1.5967,7.3193-1.9092,12.6016-.7441,1.6748,.3701,3.4355,.9443,5.25,1.7109v-7.4697c-.8418-.2637-1.666-.4883-2.458-.6719-1.0039-.2314-2.0098-.4209-2.9912-.5635-.9746-.1401-1.9844-.2378-3.001-.29-1.0361-.0518-2.1543-.0781-3.3223-.0781Z"/></g><g><path d="M201.9876,291.5855v-52.1665h31.4121v8.3013h-21.4336v12.9727h20.4355v8.1025h-20.4355v14.4883h21.4336v8.3018h-31.4121Z"/><path d="M234.3997,292.5855h-33.4121v-54.1665h33.4121v10.3013h-21.4336v10.9727h20.4355v10.1025h-20.4355v12.4883h21.4336v10.3018Zm-31.4121-2h29.4121v-6.3018h-21.4336v-16.4883h20.4355v-6.1025h-20.4355v-14.9727h21.4336v-6.3018h-29.4121v50.167Z"/></g><g><path d="M271.0364,291.5855l-7.3438-16.7637c-.6914-1.5967-1.6562-2.7998-2.8926-3.6123-1.2383-.8115-2.6953-1.2168-4.3711-1.2168h-1.875v21.5928h-9.8203v-52.1665h15.207c2.875,0,5.4824,.2466,7.8242,.7378,2.3398,.4932,4.3359,1.3115,5.9863,2.4551,1.6504,1.1445,2.9199,2.6338,3.8125,4.4707,.8906,1.8359,1.3359,4.084,1.3359,6.7451,0,1.916-.2793,3.6191-.8379,5.1084-.5586,1.4912-1.3438,2.7744-2.3555,3.8525-1.0117,1.0771-2.2148,1.9492-3.6113,2.6143s-2.9199,1.1309-4.5703,1.3965c1.2773,.2666,2.4473,.9912,3.5117,2.1758,1.0645,1.1836,2.1289,2.8936,3.1934,5.1279l8.3418,17.4824h-11.5352Zm-2.4336-36.7998c0-2.5547-.8125-4.3906-2.4355-5.5088-1.623-1.1172-4.0566-1.6758-7.3027-1.6758h-4.3105v14.7285h3.9902c1.5176,0,2.8945-.1602,4.1309-.4795,1.2383-.3193,2.2949-.7979,3.1738-1.4365,.877-.6387,1.5566-1.4307,2.0352-2.375s.7188-2.0293,.7188-3.2529Z"/><path d="M284.1565,292.5855h-13.7734l-7.6064-17.3623c-.6104-1.4092-1.459-2.4775-2.5254-3.1777-1.0811-.708-2.3311-1.0527-3.8223-1.0527h-.875v21.5928h-11.8203v-54.1665h16.207c2.9268,0,5.6279,.2554,8.0293,.7593,2.4619,.5186,4.5986,1.3975,6.3506,2.6113,1.7852,1.2383,3.1787,2.8711,4.1426,4.8555,.9531,1.9658,1.4365,4.3818,1.4365,7.1826,0,2.0273-.3037,3.8643-.9014,5.46-.6025,1.6064-1.4639,3.0146-2.5625,4.1855-1.0947,1.165-2.4102,2.1182-3.9111,2.833-.6484,.3086-1.3262,.5781-2.0303,.8066,.4463,.3389,.875,.7373,1.2861,1.1943,1.1221,1.248,2.251,3.0537,3.3516,5.3662l9.0244,18.9121Zm-12.4668-2h9.2969l-7.6592-16.0518c-1.0195-2.1387-2.04-3.7842-3.0342-4.8896-.9268-1.0312-1.8994-1.6416-2.9727-1.8662l-5.2998-1.1055,5.3447-.8604c1.5479-.249,2.9941-.6904,4.2998-1.3125,1.2744-.6064,2.3887-1.4131,3.3125-2.3955,.916-.9766,1.6387-2.1602,2.1475-3.5186,.5137-1.3701,.7744-2.9707,.7744-4.7578,0-2.4961-.416-4.6182-1.2354-6.3086-.8125-1.6719-1.9844-3.0459-3.4834-4.0859-1.5312-1.0615-3.4238-1.834-5.6221-2.2979-2.2656-.4756-4.8291-.7168-7.6182-.7168h-14.207v50.167h7.8203v-21.5928h2.875c1.8662,0,3.5215,.4648,4.9189,1.3809,1.3994,.9189,2.4961,2.2812,3.2627,4.0508l7.0791,16.1611Zm-13.1455-27.2559h-4.9902v-16.7285h5.3105c3.4854,0,6.0596,.6055,7.8701,1.8525,1.9033,1.3105,2.8682,3.4414,2.8682,6.332,0,1.376-.2783,2.6221-.8271,3.7051-.5479,1.0811-1.334,2-2.3379,2.7314-.9775,.71-2.1592,1.2471-3.5127,1.5967-1.3135,.3389-2.7871,.5107-4.3809,.5107Zm-2.9902-2h2.9902c1.4248,0,2.7305-.1504,3.8809-.4473,1.1094-.2861,2.0635-.7158,2.8359-1.2773,.7451-.543,1.3271-1.2217,1.7314-2.0186,.4053-.7998,.6104-1.7422,.6104-2.8008,0-2.2246-.6553-3.7568-2.0029-4.6855-1.4453-.9941-3.7109-1.499-6.7354-1.499h-3.3105v12.7285Z"/></g><g><path d="M312.0266,247.6012v43.9844h-10.0566v-43.9844h-14.2891v-8.1821h38.6348v8.1821h-14.2891Z"/><path d="M313.0266,292.5855h-12.0566v-43.9844h-14.2891v-10.1821h40.6348v10.1821h-14.2891v43.9844Zm-10.0566-2h8.0566v-43.9844h14.2891v-6.1826h-36.6348v6.1826h14.2891v43.9844Z"/></g><g><path d="M370.9388,272.3873c0,3.3262-.4453,6.2461-1.3359,8.7607-.8926,2.5146-2.1699,4.6104-3.832,6.2861-1.6641,1.6768-3.6914,2.9404-6.0879,3.792-2.3945,.8516-5.082,1.2773-8.0625,1.2773-3.3516,0-6.2246-.4258-8.6211-1.2773-2.3945-.8516-4.3359-2.0752-5.8262-3.6719s-2.5684-3.5381-3.2324-5.8271c-.666-2.2881-.998-4.8555-.998-7.7031v-34.605h9.8184v34.0063c0,1.7559,.1523,3.3125,.459,4.6699,.3047,1.3564,.8379,2.5078,1.5957,3.4521s1.709,1.6562,2.8535,2.1357c1.1445,.4785,2.582,.7178,4.3105,.7178,1.623,0,2.9941-.2061,4.1113-.6182s2.0488-1.0781,2.7949-1.9961c.7441-.918,1.3027-2.0957,1.6758-3.5322s.5586-3.1797,.5586-5.2285v-33.6069h9.8184v32.9683Z"/><path d="M351.6204,293.5035c-3.4492,0-6.4629-.4492-8.9561-1.335-2.5352-.9014-4.6289-2.2246-6.2227-3.9316-1.5928-1.707-2.7568-3.8027-3.4609-6.2314-.6885-2.3652-1.0381-5.0508-1.0381-7.9814v-35.605h11.8184v35.0063c0,1.6768,.1465,3.1738,.4346,4.4492,.2695,1.2002,.7402,2.2246,1.4004,3.0469,.6572,.8203,1.4619,1.4219,2.46,1.8398,1.0156,.4238,2.3359,.6396,3.9238,.6396,1.498,0,2.7646-.1875,3.7656-.5566,.9531-.3516,1.7275-.9043,2.3643-1.6885,.6494-.8008,1.1494-1.8613,1.4844-3.1523,.3496-1.3457,.5264-3.0205,.5264-4.9775v-34.6069h11.8184v33.9683c0,3.4248-.4688,6.4844-1.3936,9.0947-.9385,2.6436-2.3057,4.8828-4.0645,6.6562-1.7637,1.7773-3.9375,3.1328-6.4629,4.0303-2.4912,.8857-5.3164,1.335-8.3975,1.335Zm-17.6777-53.084v33.6045c0,2.7412,.3223,5.2393,.958,7.4238,.6162,2.125,1.627,3.9492,3.0039,5.4238,1.3721,1.4707,3.1992,2.6191,5.4297,3.4121,2.2773,.8096,5.0654,1.2197,8.2861,1.2197,2.8525,0,5.4521-.4102,7.7275-1.2197,2.2402-.7959,4.1631-1.9922,5.7129-3.5537,1.5498-1.5625,2.7607-3.5527,3.5996-5.917,.8486-2.3945,1.2783-5.2295,1.2783-8.4258v-31.9678h-7.8184v32.6064c0,2.127-.1992,3.9707-.5908,5.4795-.4072,1.5703-1.0352,2.8857-1.8672,3.9111-.8584,1.0566-1.9434,1.832-3.2256,2.3047-1.2227,.4512-2.7227,.6797-4.457,.6797-1.8545,0-3.4346-.2676-4.6963-.7949-1.2949-.543-2.3877-1.3613-3.248-2.4326-.8516-1.0615-1.4541-2.3604-1.791-3.8594-.3203-1.4189-.4834-3.0645-.4834-4.8887v-33.0059h-7.8184Z"/></g><g><path d="M415.1224,275.8199c0,2.8477-.5254,5.3223-1.5762,7.4238-1.0508,2.1025-2.5215,3.8389-4.4102,5.209s-4.1367,2.3877-6.7441,3.0527c-2.6094,.665-5.4551,.998-8.543,.998-2.7402,0-5.3867-.1592-7.9414-.4785s-5.084-.8516-7.584-1.5967v-9.6992c1.2227,.4258,2.5,.8252,3.832,1.1973,1.3301,.373,2.666,.6982,4.0117,.9785,1.3418,.2793,2.6797,.498,4.0098,.6582,1.3301,.1592,2.6211,.2393,3.873,.2393,1.8613,0,3.4453-.1592,4.748-.4785,1.3047-.3193,2.3691-.7588,3.1934-1.3174s1.4238-1.2236,1.7969-1.9961c.3711-.7715,.5586-1.6221,.5586-2.5537,0-1.2773-.3672-2.3486-1.0977-3.2129-.7324-.8652-1.6973-1.6299-2.8945-2.2959-1.1973-.6641-2.5605-1.2627-4.0898-1.7959-1.5312-.5322-3.0879-1.1035-4.6699-1.7158-1.584-.6123-3.1406-1.3037-4.6699-2.0762-1.5312-.7705-2.8945-1.7285-4.0918-2.873-1.1973-1.1436-2.1621-2.5078-2.8926-4.0918-.7324-1.582-1.0977-3.4922-1.0977-5.7275,0-2.0488,.3711-3.9912,1.1172-5.8271,.7441-1.8359,1.916-3.4385,3.5117-4.8096,1.5977-1.3701,3.6445-2.4609,6.1465-3.2725s5.5215-1.2173,9.0605-1.2173c1.0371,0,2.1211,.0464,3.2539,.1396,1.1289,.0933,2.248,.2134,3.3516,.3589,1.1035,.147,2.168,.3193,3.1934,.519,1.0234,.1997,1.9629,.4062,2.8145,.6187v8.9805c-.8516-.3193-1.7832-.6123-2.7949-.8779s-2.0547-.499-3.1328-.6992c-1.0781-.1992-2.1621-.3516-3.252-.459-1.0918-.1055-2.1309-.1592-3.1133-.1592-1.7305,0-3.1934,.1396-4.3906,.4189s-2.1836,.665-2.9551,1.1572c-.7715,.4932-1.3301,1.0977-1.6758,1.8164s-.5195,1.5166-.5195,2.3945c0,1.0918,.3672,2.0293,1.0977,2.8145,.7324,.7852,1.7031,1.4902,2.9141,2.1152,1.2109,.626,2.582,1.2109,4.1113,1.7559,1.5293,.5459,3.0996,1.1318,4.709,1.7568,1.6113,.625,3.1797,1.3369,4.7109,2.1348,1.5293,.7988,2.9004,1.7705,4.1113,2.9141,1.209,1.1445,2.1816,2.4941,2.9141,4.0508,.7305,1.5566,1.0957,3.3994,1.0957,5.5283Z"/><path d="M393.8489,293.5035c-2.7705,0-5.4844-.1641-8.0654-.4863-2.5996-.3252-5.2051-.873-7.7451-1.6309l-.7148-.2129v-11.8516l1.3291,.4629c1.2021,.4189,2.4707,.8154,3.7715,1.1787,1.2939,.3623,2.6211,.6865,3.9473,.9629,1.2979,.2695,2.6191,.4863,3.9248,.6436,1.2871,.1543,2.5498,.2324,3.7539,.2324,1.7754,0,3.293-.1514,4.5098-.4502,1.1826-.2891,2.1484-.6836,2.8711-1.1738,.6826-.4629,1.1592-.9873,1.457-1.6025,.3047-.6328,.459-1.3467,.459-2.1191,0-1.042-.2822-1.8818-.8613-2.5674-.6494-.7666-1.5303-1.4629-2.6172-2.0674-1.1406-.6328-2.4639-1.2139-3.9326-1.7256-1.5508-.5391-3.1328-1.1201-4.7021-1.7275-1.6123-.623-3.2139-1.335-4.7598-2.1162-1.6094-.8096-3.0664-1.834-4.332-3.043-1.2832-1.2256-2.3291-2.7051-3.1094-4.3955-.7891-1.7051-1.1895-3.7734-1.1895-6.1465,0-2.1719,.4004-4.2598,1.1904-6.2041,.7998-1.9727,2.0742-3.7197,3.7871-5.1914,1.6924-1.4512,3.876-2.6172,6.4893-3.4648,3.3477-1.0859,7.6123-1.542,12.7051-1.123,1.1357,.0938,2.2793,.2163,3.4004,.3643,1.1299,.1504,2.2236,.3281,3.2539,.5288,1.0352,.2021,1.999,.4141,2.8652,.6299l.7578,.189v11.2051l-1.3516-.5068c-.8184-.3076-1.7256-.5918-2.6973-.8477-.9912-.2598-2.0205-.4893-3.0615-.6826-1.0371-.1914-2.1035-.3428-3.167-.4473-2.916-.2822-5.4238-.1709-7.1787,.2383-1.084,.2529-1.9736,.5986-2.6445,1.0264-.6182,.3945-1.0469,.8555-1.3125,1.4072-.2793,.5801-.4209,1.2402-.4209,1.9609,0,.835,.2715,1.5332,.8301,2.1338,.6494,.6963,1.5391,1.3389,2.6406,1.9072,1.1621,.6006,2.5039,1.1738,3.9883,1.7021,1.5283,.5459,3.1221,1.1406,4.7354,1.7666,1.627,.6318,3.2461,1.3652,4.8105,2.1807,1.6055,.8389,3.0635,1.8721,4.3359,3.0742,1.2979,1.2285,2.3516,2.6924,3.1328,4.3516,.79,1.6846,1.1904,3.6875,1.1904,5.9541,0,2.9912-.5654,5.6396-1.6816,7.8711-1.1182,2.2373-2.7051,4.1113-4.7178,5.5713-1.9824,1.4385-4.3662,2.5186-7.084,3.2119-2.6797,.6826-5.6367,1.0293-8.79,1.0293Zm-14.5254-3.8271c2.207,.6201,4.4609,1.0752,6.708,1.3564,2.499,.3125,5.1289,.4707,7.8174,.4707,2.9873,0,5.7783-.3252,8.2959-.9668,2.4727-.6309,4.627-1.6045,6.4043-2.8936,1.749-1.2686,3.1299-2.8994,4.1025-4.8467,.9756-1.9512,1.4707-4.2988,1.4707-6.9766,0-1.9707-.3369-3.6885-1.001-5.1035-.6738-1.4316-1.5811-2.6934-2.6963-3.749-1.1377-1.0742-2.4453-2.001-3.8867-2.7539-1.499-.7812-3.0498-1.4844-4.6094-2.0889-1.5967-.6201-3.1729-1.208-4.6836-1.748-1.5684-.5586-2.9932-1.167-4.2344-1.8086-1.3057-.6738-2.3779-1.4551-3.1865-2.3223-.9072-.9746-1.3662-2.1504-1.3662-3.4961,0-1.0234,.208-1.9746,.6182-2.8281,.4258-.8838,1.1113-1.6328,2.0381-2.2256,.8643-.5508,1.9629-.9844,3.2666-1.2881,1.9746-.46,4.6875-.585,7.8271-.2812,1.1221,.1104,2.2451,.2686,3.3379,.4707,1.0889,.2021,2.167,.4434,3.2051,.7158,.5312,.1396,1.0469,.2871,1.541,.4434v-6.791c-.627-.1445-1.2988-.2871-2.0059-.4248-.9902-.1934-2.0449-.3643-3.1338-.5098-1.0879-.1436-2.1992-.2622-3.3018-.3535-4.8311-.3979-8.8301,.0283-11.9238,1.0322-2.3604,.7656-4.3135,1.8018-5.8037,3.0801-1.4678,1.2617-2.5576,2.751-3.2363,4.4268-.6924,1.7041-1.0439,3.5381-1.0439,5.4512,0,2.0811,.3379,3.8672,1.0049,5.3076,.6748,1.4629,1.5752,2.7363,2.6758,3.7891,1.1221,1.0723,2.417,1.9814,3.8506,2.7021,1.4893,.752,3.0303,1.4375,4.5811,2.0371,1.5479,.5986,3.1084,1.1719,4.6377,1.7041,1.5771,.5498,3.0059,1.1768,4.2471,1.8662,1.2988,.7227,2.3662,1.5713,3.1729,2.5234,.8848,1.0479,1.334,2.3467,1.334,3.8594,0,1.0752-.2217,2.0801-.6572,2.9873-.4492,.9297-1.168,1.7334-2.1377,2.3906-.9189,.623-2.1025,1.1143-3.5166,1.4609-1.3721,.3359-3.0498,.5068-4.9854,.5068-1.2832,0-2.626-.083-3.9922-.2461-1.3633-.1641-2.7402-.3906-4.0947-.6719-1.3701-.2861-2.7422-.6201-4.0781-.9951-.8701-.2432-1.7275-.501-2.5615-.7705v7.5576Z"/></g></g><g><path d="M214.7766,319.9459h-3.8105c-.0664-.3525-.0996-.7285-.0996-1.126,0-.375,.0332-.7617,.0996-1.1592h6.3262v9.8369h-6.2598c-1.0156-.3311-1.9043-.7998-2.666-1.4072s-1.3906-1.2979-1.8887-2.0703c-.4961-.7725-.8721-1.6006-1.125-2.4844-.2539-.8828-.3809-1.7666-.3809-2.6494,0-.7949,.0986-1.6172,.2969-2.4678,.1992-.8496,.5195-1.667,.9609-2.4512,.4414-.7832,1.0215-1.501,1.7393-2.1533,.7178-.6504,1.5947-1.1758,2.6338-1.5732h6.1934v2.5176h-5.8965c-.4199,.2441-.8281,.5371-1.2246,.8809-.3984,.3428-.7568,.7637-1.0762,1.2617-.3203,.498-.5752,1.0684-.7627,1.71-.1875,.6426-.2812,1.3838-.2812,2.2256,0,1.0186,.127,1.8711,.3809,2.5576,.2529,.6855,.5684,1.2568,.9443,1.71,.375,.4541,.7949,.8242,1.2578,1.1123,.4648,.2881,.9062,.543,1.3252,.7637h3.3135v-5.0342Z"/><path d="M220.5384,309.3473h2.5176v18.1504h-2.5176v-18.1504Z"/><path d="M231.6673,327.6637c-.8164,0-1.584-.1611-2.3027-.4805-.7168-.3203-1.3457-.7725-1.8867-1.3584-.541-.585-.9727-1.292-1.293-2.1191-.3203-.8281-.4785-1.7607-.4785-2.7988,0-1.0605,.1582-2.0205,.4785-2.8818s.752-1.5898,1.293-2.1865c.541-.5957,1.1699-1.0537,1.8867-1.374,.7188-.3203,1.4863-.4805,2.3027-.4805,.75,0,1.4785,.1602,2.1855,.4805s1.3359,.7783,1.8887,1.374c.5508,.5967,.998,1.3252,1.3418,2.1865,.3418,.8613,.5137,1.8213,.5137,2.8818,0,1.0381-.1719,1.9707-.5137,2.7988-.3438,.8271-.791,1.5342-1.3418,2.1191-.5527,.5859-1.1816,1.0381-1.8887,1.3584-.707,.3193-1.4355,.4805-2.1855,.4805Zm0-11.3945c-.3945,0-.7988,.0781-1.2148,.2334-.4141,.1553-.7871,.4092-1.1152,.7637-.3281,.3555-.5957,.8096-.8027,1.3633-.209,.5547-.3125,1.2422-.3125,2.0615,0,.8203,.1035,1.5127,.3125,2.0781,.207,.5654,.4746,1.0312,.8027,1.3965s.7012,.6309,1.1152,.7969c.416,.167,.8203,.25,1.2148,.25,.3496,0,.7266-.083,1.1309-.25,.4043-.166,.7773-.4316,1.1152-.7969,.3398-.3652,.6191-.8311,.8379-1.3965s.3281-1.2578,.3281-2.0781c0-.8193-.1094-1.5068-.3281-2.0615-.2188-.5537-.498-1.0078-.8379-1.3633-.3379-.3545-.7109-.6084-1.1152-.7637s-.7812-.2334-1.1309-.2334Z"/><path d="M242.763,314.1822h2.3516c.8398,0,1.5898,.1611,2.252,.4805,.6621,.3203,1.2266,.7617,1.6895,1.3252,.4648,.5635,.8164,1.2256,1.0605,1.9873,.2422,.7617,.3633,1.5732,.3633,2.4346,0,1.1709-.1484,2.1689-.4473,2.9971-.2969,.8281-.668,1.5234-1.1094,2.0869s-.916,1.0049-1.4238,1.3252-.9609,.5459-1.3574,.6787h-5.8965v-18.1504h2.5176v4.835Zm-.0664,10.8975h2.8633c.2852-.0664,.5703-.2041,.8555-.4141s.543-.502,.7734-.8779c.2305-.375,.418-.8389,.5605-1.3906s.2129-1.2031,.2129-1.9541c0-1.1924-.2461-2.125-.7402-2.7988s-1.2012-1.0107-2.123-1.0107h-2.4023v8.4463Z"/><path d="M259.6536,319.2838v-1.623c0-.6846-.3086-1.0273-.9258-1.0273h-4.4062v-2.4512h4.2734c2.3613,0,3.543,1.2705,3.543,3.8096v9.5059h-7.8828c-.6406-.5078-1.125-1.1201-1.457-1.8379s-.4961-1.5078-.4961-2.3682c0-.7734,.1699-1.5078,.5137-2.2031,.3418-.6953,.8652-1.2969,1.5723-1.8047h5.2656Zm-.0332,1.9541h-4.2715c-.4414,.4678-.6621,1.124-.6621,1.9707,0,.7793,.1875,1.4473,.5625,2.0039h4.3711v-3.9746Z"/><path d="M265.4173,309.3473h2.5176v18.1504h-2.5176v-18.1504Z"/><path d="M288.2376,323.7213v-13.4805h2.3184v17.2568h-2.9805l-7.2207-13.1494v13.1494h-2.252v-17.2568h2.7148l7.4199,13.4805Z"/><path d="M295.7884,322.1978c.1113,.6035,.2656,1.1621,.4648,1.6748,.1973,.5137,.4512,.96,.7617,1.3398h5.0332v2.2852h-6.127c-.707-.7285-1.3242-1.6943-1.8555-2.8984-.5293-1.2031-.7949-2.5996-.7949-4.1895,0-2.208,.459-3.8428,1.375-4.9023s2.1699-1.5898,3.7598-1.5898c.7949,0,1.5078,.1553,2.1367,.4639,.6289,.3096,1.1641,.7402,1.6055,1.292s.7793,1.2197,1.0098,2.0039c.2324,.7842,.3496,1.6396,.3496,2.5664,0,.3535-.0176,.6904-.0508,1.0107s-.0723,.6348-.1152,.9434h-7.5527Zm2.7168-5.9951c-.5078,0-.9395,.0996-1.293,.2988-.3535,.1982-.6445,.4746-.877,.8281s-.4023,.7617-.5137,1.2246c-.1094,.4639-.1758,.9727-.1992,1.5244h5.5c-.0234-1.127-.2324-2.0537-.6309-2.7822-.3965-.7295-1.0586-1.0938-1.9863-1.0938Z"/><path d="M311.3567,327.4977h-4.6699v-11.0293h-1.3262v-2.2861h1.3262v-3.9414h2.418v3.9414h2.252v2.2861h-2.252v8.5713h2.252v2.458Z"/><path d="M315.3645,327.4977l-2.75-13.3154h2.7168l1.7559,11.1289h.5293l1.9863-11.1289h4.3066l1.8555,11.1289h.5625l1.8887-11.1289h2.6484l-2.8477,13.3154h-4.0742l-1.9883-11.1953h-.4961l-2.0195,11.1953h-4.0742Z"/><path d="M338.3177,327.6637c-.8184,0-1.5859-.1611-2.3027-.4805-.7188-.3203-1.3477-.7725-1.8887-1.3584-.541-.585-.9707-1.292-1.291-2.1191-.3203-.8281-.4805-1.7607-.4805-2.7988,0-1.0605,.1602-2.0205,.4805-2.8818s.75-1.5898,1.291-2.1865c.541-.5957,1.1699-1.0537,1.8887-1.374,.7168-.3203,1.4844-.4805,2.3027-.4805,.75,0,1.4785,.1602,2.1855,.4805,.7051,.3203,1.3359,.7783,1.8867,1.374,.5527,.5967,1,1.3252,1.3418,2.1865s.5137,1.8213,.5137,2.8818c0,1.0381-.1719,1.9707-.5137,2.7988-.3418,.8271-.7891,1.5342-1.3418,2.1191-.5508,.5859-1.1816,1.0381-1.8867,1.3584-.707,.3193-1.4355,.4805-2.1855,.4805Zm0-11.3945c-.3945,0-.7988,.0781-1.2148,.2334s-.7871,.4092-1.1152,.7637c-.3281,.3555-.5957,.8096-.8047,1.3633-.207,.5547-.3105,1.2422-.3105,2.0615,0,.8203,.1035,1.5127,.3105,2.0781,.209,.5654,.4766,1.0312,.8047,1.3965s.6992,.6309,1.1152,.7969c.416,.167,.8203,.25,1.2148,.25,.3496,0,.7266-.083,1.1309-.25,.4043-.166,.7754-.4316,1.1152-.7969,.3379-.3652,.6172-.8311,.8359-1.3965s.3281-1.2578,.3281-2.0781c0-.8193-.1094-1.5068-.3281-2.0615-.2188-.5537-.498-1.0078-.8359-1.3633-.3398-.3545-.7109-.6084-1.1152-.7637s-.7812-.2334-1.1309-.2334Z"/><path d="M352.1282,314.1822v2.418h-2.8145v10.8975h-2.418v-13.3154h5.2324Z"/><path d="M356.7649,327.4977h-2.4844v-18.1504h2.5176v9.6709l4.4043-4.8359h3.3457l-5.332,5.4658,5.5312,7.8496h-3.3125l-4.1074-6.4258h-.5625v6.4258Z"/></g></g></svg>